<?xml version="1.0" encoding="utf-8"?>
<!-- Generator: Adobe Illustrator 23.0.3, SVG Export Plug-In . SVG Version: 6.00 Build 0)  -->
<svg version="1.1" id="Layer_1" xmlns="http://www.w3.org/2000/svg" xmlns:xlink="http://www.w3.org/1999/xlink" x="0px" y="0px"
	 viewBox="0 0 1920 1080" style="enable-background:new 0 0 1920 1080;" xml:space="preserve">
<style type="text/css">
	.st0{fill:none;}
	.st1{stroke:#000000;stroke-width:0.1;stroke-miterlimit:10;}
</style>
<g>
	<path d="M861.9,419.1c-0.6,1.4-1.2,2.7-1.8,4.1c-0.2-0.1-0.4-0.2-0.7-0.3c0.5-1.4,1-2.8,1.6-4.3C861.3,418.8,861.6,419,861.9,419.1
		z"/>
	<path d="M310.9,404.4"/>
	<path d="M923.3,479.9C923.3,480.4,923.3,481,923.3,479.9C923.1,481,923.2,480.4,923.3,479.9C923.3,479.9,923.3,479.9,923.3,479.9z"
		/>
	<g>
		<path d="M748.9,546.7c0.2,0,0.3,0.1,0.5,0.1C749.2,546.7,749.1,546.7,748.9,546.7c0.3-0.1,0.6-0.1,0.7-0.1
			C749.5,546.5,749.3,546.6,748.9,546.7C748.9,546.7,748.9,546.6,748.9,546.7C748.8,546.7,748.8,546.7,748.9,546.7
			C748.8,546.7,748.8,546.7,748.9,546.7C748.9,546.7,748.9,546.7,748.9,546.7z"/>
		<path d="M943.2,479.7c1.3-2.5,3.1-6.3,5.3-10.9c4-8.5,6.1-12.8,7.6-17.2c1.3-3.9,3-9.5,4-16.8c1.9-15.6,0.5-27.8-2.2-33.6
			c-2.3-4.9-7.2-8.7-8.2-9.2c-1.6-0.9-2.9-0.7-3.3-0.7c-3,0.1-5.1,2.2-6.1,3.1c-9.2,9.2-25.3,43.2-25.3,43.2
			c-0.9,1.9-1.8,3.8-2.8,5.7c-5.4,11.6-10.1,22.9-14.1,34c-3.9,0.5-9.8,1.1-17,1.4c-3.9,0.2-6.7,0.2-8,0.2c-6.1,0-15.6,0.3-29.9,1.4
			c1.3-3.2,2.7-6.5,4.1-9.8c15.2-36.5,25.9-70.9,24.5-71.4c-0.3-0.2-0.8-0.5-1.4-0.7c-0.9-0.3-1.7-0.3-2.2-0.3
			c-3.5,2.9-7.2,8.4-9.2,12.9c-10.5,22.8-20.2,46.1-30.6,69c-0.6,1.3-0.3,1.4-1.8,1.6c-18.7,2-40,4.5-58.6,6.6
			c-1.4,0.2-2.6,2.1-3.9,3.2c1.6,0.7,3.2,2.2,4.7,2.1c17.4-1,34.7-3.3,52-4.2c0.6,0,3.9-0.5,4,0c0,0,0,0.1,0,0.1
			c-20.5,45-24,49.6-24,49.6c-20,25.9-30,38.8-37.1,46.5c-11.6,12.6-27.5,28.4-48.1,45.3c-1-11.4,1.5-19.3,3.8-24.3
			c7.1-15.3,27.5-34.1,33.7-42.8c0.2-0.3,2.3-3.3,2.8-7.4c0.2-1.7,0.5-3.8-0.7-4.9c-0.6-0.6-1.8-1.2-5.8-0.3
			c-3.3,0.7-6.3,1.4-10.4,4.4c-5.5,4.1-4.7,6.6-10.4,12.3c-4.3,4.3-7.7,7.8-12.4,7.7c-5.6-0.1-10.4-5.8-12.8-10.7
			c-1.5-3.1-1-7.2-1.5-10.8c-0.1-0.7-0.7-1.4-1-2c-0.3,0.4-0.8,0.7-1,1.2c-5.3,13.2-10.5,26.5-16.1,39.6
			c-5.5,13-12.9,24.6-25.1,32.5l0.1-0.1c-4.4,3.7-11.2,8.3-20.4,10.4c-2.1,0.5-4,0.8-5.9,1c-0.7-1.7-1.6-4.1-1.8-7.2
			c-0.2-2.5,0-8.7,10.2-22.8c2.8-3.8,4.2-5.7,6.9-8.8c6.8-7.4,21.4-30.6,52.7-90l0,0c12.5-27.1,22.7-49.5,28.3-75.9
			c5.7-27.3,3.6-37.8-2.4-42.4c-4.1-3.1-9.5-3-13.8-2.3c-3.4,1.6-8.2,4.2-13.1,8.3c-6.4,5.2-10.4,10.8-14.8,17.6
			c-9.4,14.5-15.2,28.1-19.3,39.3c-3.4,9.4-4.7,14.6-9.9,33.4c-7.2,26.3-10.8,39.5-13.3,47.7c-5.2,17.3-14.8,46.6-18.7,69.2
			c0,0,0,0,0,0c-0.6,3.6-3.4,17.8-17.7,33.9c-6.3,7.2-10,11.3-14.3,10.6c-4.7-0.8-7.2-7-7.9-8.7c-3.4-8.2-0.5-14.8,5-42.4
			c0.6-2.8,1.5-7.4,1.2-13.4c-0.3-6.1,0-9.5-2.1-12.3c-1.5-2-3.5-3.2-4.8-3.8c-1.8,1-4.7,2.7-8.2,5c-10.8,7.3-19.5,15.9-48.7,53.5
			c-4.9,6.3-11.2,11.6-15.8,18.1c-2.5,3.6-4.5,6.9-8.6,8.1c-4,1.2-8.3-2-13.1-3.4c-0.7-0.2-1.7-1.6-1.5-2.1c3.6-8.5,7-17,11.2-25.3
			c7.6-15,12.2-30.1,6.6-46.9c-2.2-6.7-5.8-10.9-13.2-11c-4.1,0-7.7,0.7-10.8,2.1c-10,4.5-16.7,20.1-17.7,22.4
			c-11,25.9-13.4,37.3-22.6,55c-8.8,16.9-14.1,20.9-19.2,21.1c-4.7,0.2-9.4-2.8-11.9-6.5c-5.4-8.1,0.8-19.3,5-32.6
			c5-15.7,12-30.7,18-46.2c0.6-1.5-0.6-3.7-0.9-5.6c-1.6,2.5-4.1,6.2-7,10.8c-17.4,27.2-20.5,33-28.8,45.4
			c-11.9,17.8-19.7,26-29.6,25.6c-10-0.4-20.2-10.4-21.8-20.6c-1-6.5,1.7-12,2.7-14c14.9-29.1,48.9-80.3,65-116.1
			c7.9-17.5,11.1-31.5,17.4-59.6c7.6-33.8,7.9-51.9-1.1-63.2c-1.7-2.1-6.6-8.2-13.7-8.6c-2.8-0.1-7,0.5-15.2,7.5
			c-8.1,7-13.6,14.4-19.1,23.4c-3.7,6.1-8.7,14.8-14.7,28.7c-5,11.5-8.7,21.4-11.9,30.9c-4.9,14.4-12.6,37.3-18.5,68.3
			c-3.4,17.9-5.3,26.9-6.1,38.6c-2,28.7,2.9,40.1-4.8,54.5c-3.7,7-10.8,15.4-25.4,22.1c0,0-29.9,12.3-63.8,1.6
			c-13.9-4.4-22.7-10.7-24.7-12.1c-12.6-9-21.8-21.6-26.4-36.4c-5.6-18.2-3.4-35.7,5.7-53c9-17.2,19.8-32.2,34.2-43.1
			c2.9-2.1,6.1-4.3,9.6-6.4c7.9-4.7,15.5-7.9,22-10.1c-11.3-5.4-20.4-9.6-26.6-12.4c-10-4.5-13.5-5.8-17.2-9.6
			c-7.8-7.9-9.5-18.8-9.5-23.3c-0.2-31.8,81.4-69.3,101.7-49.9c8.3,7.9,8.8,27.6,4.4,41.6c-1.7,5.5-4.1,9.8-6.1,12.8
			c1.8-0.7,4.3-1.8,7-3.6c2.2-1.5,3.8-2.9,4.9-4c7.4-7.1,13.3-12.8,15.1-21.6c2.2-10.2-2.3-18.8-3.5-21.2c-5.3-9.9-14-14-18.7-16.2
			c-7.9-3.7-14.6-4.4-22.6-4.9c-8.8-0.5-17.6,0-26.2,1.4c-16.9,2.7-33.7,8.6-47.9,18.4c-12.7,8.8-19.6,15.5-22.4,18.9
			c-3.8,4.6-5.9,8.2-6.8,9.8c-3.1,5.6-7.3,13-7.1,22.2c0.2,9.9,5.2,17,7.4,20c7.5,10.3,18.8,14.2,29.6,18.8c5.5,2.3,12,2.4,16.8,3.3
			c-11.8,8.1-25.2,15.1-35.8,25c-19.1,17.9-36.8,36.6-40.4,65.3c-2.6,20.7,1.1,38.4,12.5,55c5.3,7.6,10.3,16,17.5,21.4
			c13.3,10,29.6,14.1,45.7,16.5c16.7,2.6,35.4,4.4,52,1c4.3-0.9,7.4-1.6,10.4-2.8c0.5-0.2,1.9-0.8,3.8-1.7
			c12.9-6.5,26.5-18.5,26.5-18.5c3.6-3.1,8.3-7.5,13.4-13c0.6,1.9,1.6,4.6,2.9,7.9c2.8,6.8,4.3,10.6,6.7,13.3
			c5.4,5.8,14.2,5.7,18.6,5.7c20.8-0.1,35-18.9,37.4-22.1c-0.8,2.8-0.3,11.3,1.9,21.4c0.7,3.5,4.9,7.8,8.4,8.8
			c5.2,1.5,9.6,2.5,13.7,1.1c3-1.1,4.8-3,5.7-3.9c11.2-11.8,17.5-25.6,17.5-25.6c4.1-9.2,8.1-16.1,16-30
			c16.5-28.9,23.2-30.1,26.8-30.8c2.5-0.5,7.9,2.3,8,3.8c0.2,6.8,0,14-1.9,20.5c-2.2,7.5-6,14.6-9.8,21.5c-3.8,7-8.8,13.2-12.6,20.2
			c-2.8,5.2-4.6,11-6.8,16.6c0,0,1.6,1.1,2.2,0.9c5.8-1.8,11.5-4.5,17.5-5.4c2.9-0.5,6.3,2.1,9.4,3.3c-1.2,1.7-2.2,3.4-3.5,5
			c-17.6,22.1-36.2,43.5-53.6,65.9c-8.8,11.3-17.3,22.9-25.1,34.9c-7.3,11.2-18.3,24.4-18.5,38.5c0,2.8,0.8,5.8,2.9,7.6
			c1.5,1.4,3.5,2,5.5,2.5c17.8,4.5,36.5-3.1,51-13.3c22-15.4,39.4-37.3,49.3-62.2c6.7-16.9,10-35.1,9.8-53.3c-0.1-9-2.1-17.3-3.4-26
			c-1.3-8.6,5.3-14.8,9.1-21.1c3.5-5.7,9.3-13.9,18.5-22.1c-1.8,2.7-4.7,7.8-5.2,14.8c-0.1,1.8-2.5,21.3,7.8,21.4
			c7.6,0.1,16.1-0.4,22.5-3.8c6.7-3.6,11.4-10.9,14.9-14.5c3.1-3.2,1,17.7,8.5,21.1c2.8,1.3,5.8,0.5,7.4,0.1c2-0.6,4.2-1.7,8.9-6.8
			c3.8-4.1,5.6-6.7,9.2-11.3c1.8-2.3,4.3-5.4,7.5-8.9c0,1.4,0.3,9.7,5.8,12.9c3.3,1.9,7,1.1,10.3,0.2c10.5-2.8,18.2-5.2,27-12.6
			c17.5-14.6,29.4-33.7,37.7-55c0.3-0.8,2.1-2,2.7-1.7c4.8,1.9,9.2,3.5,19,8.1c0.3,0.2,0.6,0.3,0.8,0.5c2,2.6-6.5,9.7-12.1,21.5
			c-0.9,1.9-4.5,9.9-4.8,20.4c-0.1,5.5-0.2,11.3,3.7,14.2c3.5,2.7,8.4,1.8,10.2,1.4c3.7-0.8,6.8-3.6,10.3-5.4
			c21.8-10.8,32.5-31.9,46.6-49.9c6.8-8.7,12.8-18.1,20.1-28.6c-2.1,5.8-21.4,59.9-13.9,74.2c1.9,3.7,4.8,5.4,4.8,5.4
			c7.5-0.5,15.5-0.5,22.2-3.5c22.7-10.1,39.6-27.6,55.1-46.5c2.4-2.9,4.7-5.9,6.5-8.3c-2.5,10.3-4.6,21.3-7.9,31.8
			c-4.2,12.9-9.4,25.5-15,40.4c0.6-0.5,1.6-1.4,2.8-2.6c4.6-4.5,10.3-12.1,18.2-38.7c0.8-2.7,2-6.9,3.3-12c0,0,8.6-29.6,18-33.9
			c0.5-0.2,1-0.4,1-0.4c10.5-3.5,6.7,9.4,6.5,15.9c-0.3,10.6,0.1,21.3,3.2,31.5c5.4,18,20.8,27.5,22.4,28.5
			c11.2,6.8,21.9,7,32.7,7.3c11.3,0.2,23.6,0.5,35.6-7.3c10.5-6.8,15.5-16.5,17.7-21.5c-9.5,5.8-18.4,9.9-26.2,13
			c-10.6,4.2-18,7.1-28.3,7.8c-8.8,0.6-19.6,1.3-28.7-5.1c-13.3-9.3-14.9-28.4-15.8-32.7c-1.4-6.8-1.3-32-4.7-37.7
			c-1.1-1.9-2.8-3.3-2.8-3.3c-0.7-0.5-2.7-2.2-5.6-2.4c-0.3,0-0.5,0-0.8,0c-2,0.1-3.4,0.7-4.3,1.1c-1.1,0.5-2.8,1.1-5,1.6
			c2.7-3.3,6.6-7.9,11.1-13.5c9.5-11.9,17.7-21.9,26.1-34.9c4.6-7.1,10.1-16.2,15.8-27.1c1.2,0,3.2,0.1,5.7,0.1
			c5.7,0,9.9-0.2,11-0.3c10.4-0.3,18.6,0.7,29.8,0.9c7,0.1,16,0.3,27.6,0.6c11.1,0.3,26.9,0.8,46.3,1.5c-0.5-1.3-1-1.9-1.6-2.2
			c-0.4-0.2-0.7-0.2-0.9-0.2c-44.7-4.1-96.1-4.6-96.1-4.6C958.3,480.1,951.6,480,943.2,479.7z M740.2,562c3.4-3.7,7-5.7,9.3-6.7
			c-0.2,1.8-1,6.5-4.6,10.8c-4.1,4.9-9.2,6.3-10.9,6.8C734.7,570.5,736.4,566.2,740.2,562z M649,531.9c1.7-6.5,5.4-20.3,10.6-38.8
			c11.4-41.4,16-55.5,26.6-71.1c1.6-2.4,18.4-27.1,26.1-23.9c3.6,1.5,4,8.5,3.9,14.7c-0.6,28.2-13.5,50.8-27.9,79.3
			c-20.6,40.8-19.4,44.4-36.8,74.6c-8.5,14.7-16.3,26.9-22.6,36.1C634.1,585.3,641.1,561.1,649,531.9z M337.4,576.5
			c0.1-29.5,5.2-53.1,7.9-65.6c0.5-2,0.8-3.7,1.2-5.1c3.7-15.8,8.5-31,14.3-46c6.9-17.7,9.4-27.2,14.9-38.2
			c8.7-17.5,26.1-46,34.6-43.2c3,1,4,5.5,4.6,8.7c4.8,26.9-6.8,55.6-20.4,89.6c-11.3,28.2-16.9,42.4-19.3,49
			c-7.3,20.4-10.4,31.6-18.5,48.7c-6.5,13.7-13.1,24.4-17.7,31.4C337.6,593.8,337.4,583.7,337.4,576.5z M489.3,743.5
			c0,0-15.2,27.7-47.7,51.5c-6.4,4.7-12.8,6.8-25.5,11.2c-3.1,1-7.5,2.4-10.1,0.1c-2-1.7-2.1-4.8-2-6.5c1-4,2.7-10,6-16.7
			c1.2-2.4,2.2-4.2,3.2-5.8c5.3-8,10.6-16,15.9-24c5.7-6.2,10.2-11.5,13.4-15.5c3.7-4.5,5.9-7.4,7.7-9.8c0.5-0.7,2.3-3.3,4.7-6.8
			c1.7-2.6,3.2-4.9,4.4-6.9c1.9-2.6,4.9-6.6,8.8-11.3c3.7-4.5,3.8-4.1,8.2-9.2c1.2-1.4,2.7-3.3,5.1-5.9c1.7-1.9,2.7-2.9,3.7-3.9
			c5.3-5.6,6.3-8.4,11-13.7c1.5-1.6,3.8-4.1,7-6.8c1.1,4.6,2.5,11.2,2.8,19.3C507,710.2,496.2,730.8,489.3,743.5z M561.7,637.6
			c-4.6,3.9-12.2,7.6-16.3,5.2c-4-2.4-3.7-9.5-3.6-12.2c0.2-6,2.3-17.8,32.6-50.9c2.4-2.7,4.5-4.8,5.6-6
			c-1.5,14.6-3.8,26.8-5.8,35.8C570.5,626.3,567.5,632.7,561.7,637.6z M867.4,573.5c-1.8,2.2-2.4,2.5-10.8,10.4
			c-6.2,5.8-13.6,12.3-32.2,28.6c-1.9,1.6-8.2,7.2-17.8,9.4c-3.1,0.7-8.1,1.5-11.2-0.7c-6.2-4.2-4.8-20,3.6-38.8l0,0
			c4.6-9.3,9.1-18.8,13.6-28.5c10.7-23.3,20.2-46,28.5-67.9c5.5-0.2,11.1-0.4,16.7-0.6c12.9-0.4,25.6-0.8,38.3-1.1
			c-8.8,32.6-11.9,45-12.3,47.5c-0.1,0.4-0.4,2.5-1,5.1c-0.3,1.1-0.5,2.1-0.9,3.4c-0.6,2.2-1.1,3.8-1.5,4.9
			C876.7,556.5,873.4,566,867.4,573.5z M904.3,523.8c-6.7,11.3-13.5,22-20.2,32c1.2-11.3,3.4-24.6,7.5-39.2
			c3.5-12.4,7.8-23.3,11.9-32.4c2.8-0.5,5-0.7,6.6-0.8c2.7-0.2,4.3-0.1,12.1,0.1c1.8,0,3.3,0.1,4.3,0.1
			C919.9,496.5,912.5,509.9,904.3,523.8z M925.6,478.5c-1.6,0.1-6.7,0.4-12.1,0.5c-2.4,0-5,0-8.3-0.6h0c0,0,4.9-14.3,9.9-26.7
			c1.4-3.6,4.6-11.3,8.8-20c4.4-9.1,10.7-21.2,19.8-35.1l0,0c0.4-0.4,1.2-1.1,2-0.9c1.5,0.4,1.7,4.3,1.8,5.8
			c0.8,16.3-13.9,75.5-19.2,76.6C926.9,478.4,925.6,478.5,925.6,478.5z"/>
	</g>
	<path class="st0" d="M212.2,419c0-2.2-0.3-4-0.6-4"/>
	<path class="st0" d="M203.7,409.4c0,0,0.2,0,0.3,0"/>
	<path class="st0" d="M203.7,409.4c0,1.3,16.4,2.3,36.8,2.3"/>
	<path class="st0" d="M175.9,434.9c0,0.2,0,0.3,0,0.3"/>
	<path class="st1" d="M442.2,545.5c-0.7-0.1-2,0-3.5,0.3c-0.6,0.2-1.7,0.5-3,1.3c-1.8,1.2-2.8,2.8-3.3,3.7
		c-2.5,5.9,0.4,12.1,4.8,13.6c5,1.7,11.1-3,11.8-8.5C449.6,550.9,445.5,545.9,442.2,545.5z"/>
	<path d="M831.6,502"/>
	<path d="M924.6,484.2"/>
	<path d="M885,531"/>
	<path d="M911.9,517.4"/>
	<path d="M1050.6,603.5"/>
</g>
</svg>
